<?xml version="1.0" encoding="iso-8859-1"?>
<!-- Generator: Adobe Illustrator 24.3.0, SVG Export Plug-In . SVG Version: 6.00 Build 0)  -->
<svg version="1.1" xmlns="http://www.w3.org/2000/svg" xmlns:xlink="http://www.w3.org/1999/xlink" x="0px" y="0px"
	 viewBox="0 0 512 512" style="enable-background:new 0 0 512 512;" xml:space="preserve">
<g id="_x31_71_x2C__Mobile_x2C__Phone_x2C__Smartphone_x2C__Contact">
	<g>
		<path style="fill:#3B6BAB;" d="M381,426v19.67c0,22.271-18.06,40.33-40.33,40.33H161.33c-22.27,0-40.33-18.06-40.33-40.33V426H381
			z"/>
		<path style="fill:#B5DBFF;" d="M381,86v340H121V86H381z"/>
		<path style="fill:#EDF5FF;" d="M356,111v290H146V111H356z"/>
		<circle style="fill:#FD4B49;" cx="251" cy="456" r="15"/>
		<circle style="fill:#76E2F8;" cx="446" cy="91" r="25"/>
		<circle style="fill:#76E2F8;" cx="418.5" cy="308.5" r="12.5"/>
		<circle style="fill:#76E2F8;" cx="68.5" cy="388.5" r="27.5"/>
		<path style="fill:#3B6BAB;" d="M381,66.33V86H121V66.33C121,44.06,139.06,26,161.33,26h179.34C362.94,26,381,44.06,381,66.33z"/>
		<circle style="fill:#B9DD39;" cx="301" cy="336" r="25"/>
		<circle style="fill:#FD4B49;" cx="201" cy="336" r="25"/>
		<circle cx="463.5" cy="368.5" r="7.5"/>
		<circle cx="448.5" cy="198.5" r="7.5"/>
		<circle cx="418.5" cy="438.5" r="7.5"/>
		<circle cx="413.5" cy="43.5" r="7.5"/>
		<circle cx="93.5" cy="268.5" r="7.5"/>
		<circle cx="83.5" cy="468.5" r="7.5"/>
		<circle cx="73.5" cy="53.5" r="7.5"/>
		<circle cx="58.5" cy="183.5" r="7.5"/>
		<path d="M251,476c-11.028,0-20-8.972-20-20s8.972-20,20-20c11.028,0,20,8.972,20,20S262.028,476,251,476z M251,446
			c-5.514,0-10,4.486-10,10s4.486,10,10,10c5.514,0,10-4.486,10-10S256.514,446,251,446z"/>
		<path d="M381,91H121c-2.761,0-5-2.239-5-5s2.239-5,5-5h260c2.762,0,5,2.239,5,5S383.762,91,381,91z"/>
		<path d="M271,61h-40.33c-2.761,0-5-2.239-5-5s2.239-5,5-5H271c2.762,0,5,2.239,5,5S273.762,61,271,61z"/>
		<path d="M381,431H121c-2.761,0-5-2.238-5-5s2.239-5,5-5h260c2.762,0,5,2.238,5,5S383.762,431,381,431z"/>
		<path d="M68.5,421C50.58,421,36,406.421,36,388.5S50.58,356,68.5,356s32.5,14.579,32.5,32.5S86.42,421,68.5,421z M68.5,366
			C56.093,366,46,376.094,46,388.5c0,12.406,10.093,22.5,22.5,22.5S91,400.906,91,388.5C91,376.094,80.907,366,68.5,366z"/>
		<path d="M340.67,491H161.33c-24.995,0-45.33-20.335-45.33-45.33V66.33C116,41.335,136.335,21,161.33,21h179.34
			C365.665,21,386,41.335,386,66.33v379.34C386,470.665,365.665,491,340.67,491z M161.33,31C141.849,31,126,46.849,126,66.33v379.34
			c0,19.482,15.849,35.33,35.33,35.33h179.34c19.482,0,35.33-15.849,35.33-35.33V66.33C376,46.849,360.151,31,340.67,31H161.33z"/>
		<path d="M446,121c-16.542,0-30-13.458-30-30s13.458-30,30-30s30,13.458,30,30S462.542,121,446,121z M446,71
			c-11.028,0-20,8.972-20,20s8.972,20,20,20s20-8.972,20-20S457.028,71,446,71z"/>
		<path d="M418.5,326c-9.649,0-17.5-7.851-17.5-17.5s7.851-17.5,17.5-17.5s17.5,7.851,17.5,17.5S428.149,326,418.5,326z M418.5,301
			c-4.136,0-7.5,3.364-7.5,7.5s3.364,7.5,7.5,7.5s7.5-3.364,7.5-7.5S422.636,301,418.5,301z"/>
		<path d="M356,406H146c-2.761,0-5-2.238-5-5V111c0-2.761,2.239-5,5-5h210c2.762,0,5,2.239,5,5v290C361,403.762,358.762,406,356,406
			z M151,396h200V116H151V396z"/>
		<path d="M201,366c-16.542,0-30-13.458-30-30s13.458-30,30-30s30,13.458,30,30S217.542,366,201,366z M201,316
			c-11.028,0-20,8.972-20,20s8.972,20,20,20s20-8.972,20-20S212.028,316,201,316z"/>
		<path d="M301,366c-16.542,0-30-13.458-30-30s13.458-30,30-30s30,13.458,30,30S317.542,366,301,366z M301,316
			c-11.028,0-20,8.972-20,20s8.972,20,20,20s20-8.972,20-20S312.028,316,301,316z"/>
	</g>
</g>
<g id="Layer_1">
</g>
</svg>
